<svg xmlns="http://www.w3.org/2000/svg" viewBox="10333.092 174.99 440.622 105.189">
  <defs>
    <style>
      .highlight-yellow-module1 {
        fill: #f6f508;
      }
    </style>
  </defs>
  <g id="highlight" transform="translate(10331.219 174.99)">
    <g id="Group_14058" data-name="Group 14058" transform="translate(1.873)">
      <path id="Path_7996" data-name="Path 7996" class="highlight-yellow-module1" d="M442.22,0C367.145,0,291.8,2.522,216.721,8.646c-37.675,3.242-75.074,6.845-112.2,11.167C70.147,23.776,35.5,28.819,2.5,42.868c-1.65.72.55,43.949,0,43.949,138.6,10.807,277.748-5.4,415.8,14.77V57.638c-6.325,1.441-12.925,1.8-19.25,3.6-2.475.72,2.2,43.229,0,43.949,6.325-1.8,12.925-2.522,19.25-3.6.825,0,.275-43.949,0-43.949C280.246,37.465,141.1,53.675,2.5,42.868V86.817c32.175-13.689,66-19.093,99.824-22.695,38.225-4.323,76.174-8.285,114.4-11.167,75.075-6.124,150.424-8.646,225.773-8.646,0-.36,0-44.309-.275-44.309Z" transform="translate(-1.873)"/>
    </g>
  </g>
</svg>
